<?xml version="1.0" encoding="utf-8"?>
<!-- Generator: Adobe Illustrator 19.2.1, SVG Export Plug-In . SVG Version: 6.00 Build 0)  -->
<svg version="1.1" id="layer" xmlns="http://www.w3.org/2000/svg" xmlns:xlink="http://www.w3.org/1999/xlink" x="0px" y="0px"
	 viewBox="0 0 652 652" style="enable-background:new 0 0 652 652;" xml:space="preserve">
<style type="text/css">
	.st0{fill:#0054A7;}
	.st1{fill-rule:evenodd;clip-rule:evenodd;fill:#FFFFFF;}
	.st2{fill:none;stroke:#FFFFFF;stroke-width:6.9573;}
	.st3{fill-rule:evenodd;clip-rule:evenodd;fill:#0054A7;}
	.st4{fill-rule:evenodd;clip-rule:evenodd;fill:#B5B5B6;}
	.st5{fill:#FFFFFF;}
	.st6{fill:none;stroke:#FFFFFF;stroke-width:0.9586;}
</style>
<g>
	<path class="st0" d="M136.3,368.5c-2.5,0-5-0.6-7.1-2l1.2-2.4c1.9,1.2,3.7,1.8,5.9,1.8c2.9,0,4.8-1.5,4.8-3.8c0-1.8-1.2-3-3.6-3.7
		l-2.3-0.7c-3.3-1-5.2-2.6-5.2-5.7c0-3.8,2.9-6.4,7.3-6.4c2.4,0,4.8,0.7,6.7,2.1l-1.4,2.2c-2-1.2-3.4-1.7-5.2-1.7
		c-2.5,0-4,1.3-4,3.3c0,1.6,0.9,2.5,3.3,3.2l2.6,0.8c2.9,0.9,5.4,2.8,5.4,6.2C144.6,364.7,142.1,368.5,136.3,368.5"/>
	<path class="st0" d="M164.3,368.2h-3.5l-1.9-7.3c-0.6-2.5-1-4.8-1.1-5.4c-0.1,0.7-0.5,3-1.1,5.3l-1.8,7.5h-3.6l-4.5-16.9h3.2l2,7.4
		c0.7,2.6,1,4.7,1.1,5.8c0.1-1,0.5-3.1,1.1-5.6l2-7.6h3.3l2,8.1c0.5,2,0.9,4.1,1,5c0.1-0.8,0.5-3.2,1.1-5.5l1.9-7.5h3.1L164.3,368.2
		"/>
	<rect x="172.4" y="351.3" class="st0" width="3" height="16.8"/>
	<path class="st0" d="M189.8,367.4c-1.2,0.7-2.7,1-4.4,1c-2.1,0-4.3-0.5-6.2-1.5l1.1-2.3c1.8,0.9,3.4,1.4,5.2,1.4
		c1.1,0,1.9-0.2,2.5-0.5c0.8-0.4,1.2-1.1,1.2-1.9c0-1.2-0.9-2-3-2.5l-2.4-0.6c-1.5-0.4-2.7-1.1-3.4-2.2c-0.5-0.7-0.7-1.5-0.7-2.3
		c0-3,2.7-5.1,6.4-5.1c2.2,0,4.5,0.6,6,1.7l-1.4,2.1c-1.5-0.9-3-1.3-4.5-1.3c-2,0-3.3,0.8-3.3,2.2c0,1.1,0.7,1.6,2.7,2.2l2.3,0.6
		c1.3,0.4,2.6,0.9,3.4,1.7c0.8,0.8,1.2,1.9,1.2,3C192.6,364.8,191.6,366.5,189.8,367.4"/>
	<path class="st0" d="M205.9,367.4c-1.2,0.7-2.7,1-4.4,1c-2.1,0-4.3-0.5-6.2-1.5l1.1-2.3c1.8,0.9,3.4,1.4,5.2,1.4
		c1.1,0,1.9-0.2,2.5-0.5c0.8-0.4,1.2-1.1,1.2-1.9c0-1.2-0.9-2-3-2.5l-2.4-0.6c-1.5-0.4-2.7-1.1-3.4-2.2c-0.5-0.7-0.7-1.5-0.7-2.3
		c0-3,2.7-5.1,6.4-5.1c2.2,0,4.5,0.6,6,1.7l-1.4,2.1c-1.5-0.9-3-1.3-4.5-1.3c-2,0-3.3,0.8-3.3,2.2c0,1.1,0.7,1.6,2.7,2.2l2.3,0.6
		c1.3,0.4,2.6,0.9,3.4,1.7c0.8,0.8,1.2,1.9,1.2,3C208.7,364.8,207.7,366.5,205.9,367.4"/>
	<path class="st0" d="M231.3,368.1l-5.8-11.7c-1.1-2.3-2.3-4.8-2.7-6l-0.2,0c0.2,1.9,0.2,4.1,0.3,6.1l0.1,11.6h-3.1v-22h3.6
		l6.1,12.1c0.9,1.8,2,4.7,2.2,5.3l0.2-0.1c-0.1-0.6-0.3-4.1-0.3-6.6l-0.1-10.8h3v22H231.3"/>
	<path class="st0" d="M245.4,353.9c-0.1,0.4-2.3,6.9-2.4,7.3h4.8C247.6,360.7,245.5,354.4,245.4,353.9 M250.1,368.1l-1.6-4.4h-6.3
		l-1.6,4.4h-3.1l6.3-16.8h3.5l6.1,16.8H250.1z"/>
	<polygon class="st0" points="266.5,353.7 261.6,353.7 261.6,368.1 258.7,368.1 258.7,353.7 253.9,353.7 253.9,351.3 266.9,351.3 	
		"/>
	<rect x="270.1" y="351.3" class="st0" width="3" height="16.8"/>
	<path class="st0" d="M289.2,363.7c0.4-1,0.5-2,0.5-3.8c0-2.1-0.2-3.4-0.7-4.5c-0.8-1.5-2-2.1-3.8-2.1c-1.5,0-2.8,0.7-3.5,1.8
		c-0.6,1-0.9,2.4-0.9,4.3c0,2.2,0.4,3.9,1.1,5c0.6,1.1,1.9,1.6,3.6,1.6C287.3,366.1,288.6,365.4,289.2,363.7 M279.8,366.2
		c-1.6-1.7-2.3-3.8-2.3-6.6c0-5.4,2.9-8.6,7.8-8.6c2.7,0,4.7,0.9,6.1,2.6c1.2,1.4,1.8,3.4,1.8,6.1c0,2.7-0.5,4.6-1.7,6.1
		c-1.4,1.8-3.2,2.6-6,2.6C282.9,368.4,281.2,367.7,279.8,366.2"/>
	<path class="st0" d="M310.7,368.1v-16.8h-2.9l0.1,7.9c0,2,0.3,4.1,0.3,4.5c-0.2-0.5-1-2.2-2-3.9l-4.9-8.5h-3.4v16.8h3l-0.1-8.1
		c0-2.1-0.1-3.8-0.2-4.7c0.1,0.3,1.2,2.7,2.2,4.3l4.8,8.4H310.7"/>
	<path class="st0" d="M321.7,353.9c-0.1,0.4-2.3,6.9-2.4,7.3h4.8C323.9,360.7,321.8,354.4,321.7,353.9 M326.4,368.1l-1.6-4.4h-6.3
		l-1.6,4.4h-3.1l6.3-16.8h3.5l6.1,16.8H326.4z"/>
	<polygon class="st0" points="342.2,368.1 332.5,368.1 332.5,351.3 335.6,351.3 335.6,365.6 342.6,365.6 	"/>
	<path class="st0" d="M357.7,368.5c-2.5,0-5-0.6-7.1-2l1.2-2.4c1.9,1.2,3.7,1.8,5.9,1.8c2.9,0,4.8-1.5,4.8-3.8c0-1.8-1.2-3-3.6-3.7
		l-2.3-0.7c-3.3-1-5.2-2.6-5.2-5.7c0-3.8,2.9-6.4,7.3-6.4c2.4,0,4.8,0.7,6.7,2.1l-1.4,2.2c-2-1.2-3.4-1.7-5.2-1.7
		c-2.5,0-4,1.3-4,3.3c0,1.6,0.9,2.5,3.3,3.2l2.6,0.8c2.9,0.9,5.4,2.8,5.4,6.2C366,364.7,363.5,368.5,357.7,368.5"/>
	<path class="st0" d="M377,368.3c-2.3,0-4.2-0.7-5.7-2.1c-1.6-1.5-2.5-3.7-2.5-6.4c0-2,0.5-3.8,1.4-5.2c1.4-2.3,3.9-3.7,6.8-3.7
		c1.8,0,3.6,0.5,4.7,1.3l-1.5,2c-1-0.6-2-1-3.2-1c-1.8,0-3.3,0.9-4.1,2.4c-0.6,1-0.8,2.2-0.8,4c0,2.4,0.4,3.6,1.3,4.7
		c1,1.1,2.2,1.6,3.7,1.6c1.3,0,2.4-0.4,3.5-1.1l1.4,1.9C381,367.8,379.1,368.3,377,368.3"/>
	<rect x="385.4" y="351.3" class="st0" width="3" height="16.8"/>
	<polygon class="st0" points="393.8,368.1 393.8,351.3 404.3,351.3 403.9,353.7 396.8,353.7 396.8,358.1 402.7,358.1 402.7,360.5 
		396.8,360.5 396.8,365.5 404.6,365.5 404.6,368.1 	"/>
	<path class="st0" d="M421.9,368.1v-16.8H419l0.1,7.9c0,2,0.3,4.1,0.3,4.5c-0.2-0.5-1-2.2-2-3.9l-4.9-8.5h-3.4v16.8h3l-0.1-8.1
		c0-2.1-0.1-3.8-0.2-4.7c0.1,0.3,1.2,2.7,2.2,4.3l4.8,8.4H421.9"/>
	<path class="st0" d="M434.1,368.3c-2.3,0-4.2-0.7-5.7-2.1c-1.6-1.5-2.5-3.7-2.5-6.4c0-2,0.5-3.8,1.4-5.2c1.4-2.3,3.9-3.7,6.8-3.7
		c1.8,0,3.6,0.5,4.7,1.3l-1.5,2c-1-0.6-2-1-3.2-1c-1.8,0-3.3,0.9-4.1,2.4c-0.6,1-0.8,2.2-0.8,4c0,2.4,0.3,3.6,1.3,4.7
		c1,1.1,2.2,1.6,3.7,1.6c1.3,0,2.4-0.4,3.5-1.1l1.4,1.9C438,367.8,436.2,368.3,434.1,368.3"/>
	<polygon class="st0" points="442.4,368.1 442.4,351.3 452.9,351.3 452.5,353.7 445.4,353.7 445.4,358.1 451.3,358.1 451.3,360.5 
		445.4,360.5 445.4,365.5 453.2,365.5 453.2,368.1 	"/>
	<polygon class="st0" points="475,348.6 467,348.6 467,355.3 473.6,355.3 473.6,357.8 467,357.8 467,368.1 463.9,368.1 463.9,346.1 
		475.4,346.1 	"/>
	<path class="st0" d="M488.4,363.7c0.4-1,0.5-2,0.5-3.8c0-2.1-0.2-3.4-0.7-4.5c-0.8-1.5-2-2.1-3.8-2.1c-1.5,0-2.8,0.7-3.5,1.8
		c-0.6,1-0.9,2.4-0.9,4.3c0,2.2,0.4,3.9,1.1,5c0.6,1.1,1.9,1.6,3.6,1.6C486.5,366.1,487.8,365.4,488.4,363.7 M479,366.2
		c-1.6-1.7-2.3-3.8-2.3-6.6c0-5.4,2.9-8.6,7.8-8.6c2.7,0,4.7,0.9,6.1,2.6c1.2,1.4,1.8,3.4,1.8,6.1c0,2.7-0.5,4.6-1.7,6.1
		c-1.4,1.8-3.2,2.6-6,2.6C482.1,368.4,480.4,367.7,479,366.2"/>
	<path class="st0" d="M508.1,366.8c-1.1,1.1-2.7,1.6-5,1.6c-3.2,0-5-1.2-5.9-2.7c-0.5-1-0.7-1.7-0.7-3.5v-10.9h3v10.3
		c0,1.2,0.1,2.1,0.3,2.6c0.4,1.1,1.7,1.7,3.3,1.7c1.3,0,2.3-0.4,2.8-1.1c0.5-0.6,0.6-1.2,0.6-2.8v-10.7h3v10.8
		C509.6,364.8,509.3,365.7,508.1,366.8"/>
	<path class="st0" d="M524.6,368.1l-4.8-8.4c-1-1.7-2.1-4-2.2-4.3c0.1,0.9,0.2,2.6,0.2,4.7l0.1,8.1h-3v-16.8h3.4l4.9,8.5
		c1,1.7,1.8,3.5,2,3.9c0-0.4-0.3-2.5-0.3-4.5l-0.1-7.9h2.9v16.8H524.6"/>
	<path class="st0" d="M541.9,355.2c-1-1.2-2.1-1.5-3.8-1.5h-2v12h2.3c0.5,0,1.1-0.1,1.6-0.2c1.8-0.4,3.1-2,3.1-5.6
		C543.1,357.7,542.8,356.2,541.9,355.2 M541.6,351.8c2.5,0.8,4.8,2.8,4.8,7.8c0,5.4-3.4,7.7-5.5,8.2c-0.7,0.2-1.8,0.2-3,0.2H533
		v-16.8h3.8C538.6,351.3,540.2,351.3,541.6,351.8"/>
	<path class="st0" d="M556.3,353.9c-0.1,0.4-2.3,6.9-2.4,7.3h4.8C558.5,360.7,556.4,354.4,556.3,353.9 M561,368.1l-1.6-4.4h-6.3
		l-1.6,4.4h-3.1l6.3-16.8h3.5l6.1,16.8H561z"/>
	<polygon class="st0" points="577.3,353.7 572.5,353.7 572.5,368.1 569.5,368.1 569.5,353.7 564.7,353.7 564.7,351.3 577.7,351.3 	
		"/>
	<rect x="580.9" y="351.3" class="st0" width="3" height="16.8"/>
	<path class="st0" d="M600.7,363.7c0.4-1,0.5-2,0.5-3.8c0-2.1-0.2-3.4-0.7-4.5c-0.8-1.5-2-2.1-3.8-2.1c-1.5,0-2.8,0.7-3.5,1.8
		c-0.6,1-0.9,2.4-0.9,4.3c0,2.2,0.4,3.9,1.1,5c0.6,1.1,1.9,1.6,3.6,1.6C598.8,366.1,600.1,365.4,600.7,363.7 M591.3,366.2
		c-1.6-1.7-2.3-3.8-2.3-6.6c0-5.4,2.9-8.6,7.8-8.6c2.7,0,4.7,0.9,6.1,2.6c1.2,1.4,1.8,3.4,1.8,6.1c0,2.7-0.5,4.6-1.7,6.1
		c-1.4,1.8-3.2,2.6-6,2.6C594.4,368.4,592.7,367.7,591.3,366.2"/>
	<path class="st0" d="M618.7,368.1l-4.8-8.4c-1-1.7-2.1-4-2.2-4.3c0.1,0.9,0.2,2.6,0.2,4.7l0.1,8.1h-3v-16.8h3.4l4.9,8.5
		c1,1.7,1.8,3.5,2,3.9c0-0.4-0.3-2.5-0.3-4.5l-0.1-7.9h2.9v16.8H618.7"/>
	<rect x="21.8" y="274.8" class="st1" width="217.4" height="54.4"/>
	<rect x="21.8" y="274.8" class="st2" width="217.4" height="54.4"/>
	<path class="st3" d="M149.4,274.8c0.1,0.1,0.2,0.1,0.3,0.2l-6.4,12.6c-3-2.5-6.8-4.1-10.8-4.1c-3,0-7,1.7-7,5.2
		c0,3.6,4.4,5,7.3,5.9l4.2,1.2c8.6,2.6,15.4,7.1,15.4,17.1c0,5.7-1.5,12.1-5.5,16.2h92.4v-54.3H149.4"/>
	<path class="st4" d="M106.2,329.1l6.9-13.7c4,3.6,8.8,6.4,14.4,6.4c3.9,0,8-1.9,8-6.3c0-4.5-6.4-6.1-10-7.1
		c-10.1-2.9-16.8-5.5-16.8-17.6c0-6.8,2.6-12.3,6.9-16H21.9v54.3h84.5C106.3,329.2,106.2,329.1,106.2,329.1"/>
	<polygon class="st5" points="42.2,286.3 42.2,297.7 56.3,297.7 56.3,302.3 42.2,302.3 42.2,322.1 37.2,322.1 37.2,281.7 
		56.7,281.7 56.7,286.3 	"/>
	<polygon class="st6" points="42.2,286.3 42.2,297.7 56.3,297.7 56.3,302.3 42.2,302.3 42.2,322.1 37.2,322.1 37.2,281.7 
		56.7,281.7 56.7,286.3 	"/>
	<polygon class="st5" points="65.3,279.8 95.6,311.6 95.6,281.7 100.6,281.7 100.6,323.8 70.3,292 70.3,322.1 65.3,322.1 	"/>
	<polygon class="st6" points="65.3,279.8 95.6,311.6 95.6,281.7 100.6,281.7 100.6,323.8 70.3,292 70.3,322.1 65.3,322.1 	"/>
	<polygon class="st5" points="160.7,279.8 191,311.6 191,281.7 196,281.7 196,323.8 165.7,292 165.7,322.1 160.7,322.1 	"/>
	<polygon class="st6" points="160.7,279.8 191,311.6 191,281.7 196,281.7 196,323.8 165.7,292 165.7,322.1 160.7,322.1 	"/>
	<polygon class="st5" points="211.3,286.3 211.3,297.7 225.3,297.7 225.3,302.3 211.3,302.3 211.3,322.1 206.3,322.1 206.3,281.7 
		225.8,281.7 225.8,286.3 	"/>
	<polygon class="st6" points="211.3,286.3 211.3,297.7 225.3,297.7 225.3,302.3 211.3,302.3 211.3,322.1 206.3,322.1 206.3,281.7 
		225.8,281.7 225.8,286.3 	"/>
</g>
</svg>
