<?xml version="1.0" encoding="UTF-8" standalone="no"?>
<!-- Created with Inkscape (http://www.inkscape.org/) -->
<svg
   xmlns:svg="http://www.w3.org/2000/svg"
   xmlns="http://www.w3.org/2000/svg"
   version="1.0"
   width="420"
   height="150"
   id="svg14950">
  <defs
     id="defs14952" />
  <path
     d="M 101.5625,73.053124 L 34.796876,73.053124 C 24.5,73.053124 16.156248,80.193752 16.156248,89.021876 L 16.156248,105.6625 C 16.156248,114.49062 24.5,121.64688 34.796876,121.64688 L 101.5625,121.64688"
     id="path17431"
     style="fill:#bdbaba;fill-opacity:1;fill-rule:nonzero;stroke:none" />
  <path
     d="M 319.35938,73.053124 L 385.21876,73.053124 C 395.5,73.053124 403.84376,80.193752 403.84376,89.021876 L 403.84376,105.6625 C 403.84376,114.49062 395.5,121.64688 385.21876,121.64688 L 319.26562,121.64688"
     id="path17433"
     style="fill:#bdbaba;fill-opacity:1;fill-rule:nonzero;stroke:none" />
  <path
     d="M 187.78125,121.49062 L 190.32812,107.0375 L 133.35938,106.88125 L 133.625,121.61562 L 187.78125,121.49062 z"
     id="path17435"
     style="fill:#bdbaba;fill-opacity:1;fill-rule:nonzero;stroke:none" />
  <path
     d="M 188.4375,99.9125 C 188.4375,104.725 184.54688,108.61562 179.75,108.61562 L 133.46875,108.61562 L 133.46875,131.49062 C 133.46875,136.2875 129.57812,140.17812 124.78125,140.17812 L 111.39062,140.17812 C 106.57812,140.17812 102.6875,136.2875 102.6875,131.49062 L 102.6875,54.740624 C 102.6875,49.943748 106.57812,46.0375 111.39062,46.0375 L 179.75,46.0375 C 184.54688,46.0375 188.4375,49.943748 188.4375,54.740624 L 188.4375,99.9125 z"
     id="path17437"
     style="fill:#ffffff;fill-opacity:1;fill-rule:nonzero;stroke:#000000;stroke-width:4.96799994;stroke-linecap:butt;stroke-linejoin:miter;stroke-miterlimit:4;stroke-opacity:1" />
  <path
     d="M 274.60938,54.740624 C 274.60938,49.943748 278.5,46.0375 283.29688,46.0375 L 310.29688,46.0375 C 315.09375,46.0375 318.98438,49.943748 318.98438,54.740624 L 318.98438,131.49062 C 318.98438,136.2875 315.09375,140.17812 310.29688,140.17812 L 283.29688,140.17812 C 278.5,140.17812 274.60938,136.2875 274.60938,131.49062 L 274.60938,54.740624 z"
     id="path17439"
     style="fill:#ffffff;fill-opacity:1;fill-rule:nonzero;stroke:#000000;stroke-width:4.96799994;stroke-linecap:butt;stroke-linejoin:miter;stroke-miterlimit:4;stroke-opacity:1" />
  <path
     d="M 265.90625,77.443752 C 270.70312,77.443752 274.60938,81.334376 274.60938,86.131248 L 274.60938,131.49062 C 274.60938,136.2875 270.70312,140.19375 265.90625,140.19375 L 197.14062,140.19375 C 192.32812,140.19375 188.4375,136.2875 188.4375,131.49062 L 188.4375,117.30312 C 188.4375,112.50625 192.32812,108.61562 197.14062,108.61562 L 247.8125,108.61562 L 197.14062,108.61562 C 192.32812,108.61562 188.4375,104.725 188.4375,99.9125 L 188.4375,54.740624 C 188.4375,49.928124 192.32812,46.0375 197.14062,46.0375 L 265.90625,46.0375 C 270.70312,46.0375 274.60938,49.928124 274.60938,54.740624 L 274.60938,68.756248 C 274.60938,73.553124 270.70312,77.443752 265.90625,77.443752 L 215.71875,77.443752 L 265.90625,77.443752 z"
     id="path17441"
     style="fill:#ffffff;fill-opacity:1;fill-rule:nonzero;stroke:#000000;stroke-width:4.96799994;stroke-linecap:butt;stroke-linejoin:miter;stroke-miterlimit:4;stroke-opacity:1" />
  <path
     d="M 130.70312,77.443752 L 160.14062,77.443752"
     id="path17443"
     style="fill:none;stroke:#000000;stroke-width:4.96799994;stroke-linecap:butt;stroke-linejoin:miter;stroke-miterlimit:4;stroke-opacity:1" />
  <path
     d="M 33.780096,29.448404 L 33.780096,19.760904 C 38.280096,19.948404 40.030096,17.885904 40.030096,13.448404 C 40.030096,7.885904 36.842596,7.635904 34.342596,7.635904 L 30.842596,7.635904 L 30.842596,29.448404 L 33.780096,29.448404 z M 34.155096,10.073404 C 36.342596,10.073404 36.905096,11.760904 36.905096,13.698404 C 36.905096,16.135904 36.217596,17.510904 33.780096,17.323404 L 33.780096,10.073404 L 34.155096,10.073404 z"
     id="path19341"
     style="fill:#000000;fill-opacity:1;stroke:none" />
  <path
     d="M 50.996316,7.635904 L 46.246316,29.448404 L 49.058816,29.448404 L 49.871316,25.198404 L 54.246316,25.198404 L 55.058816,29.448404 L 57.933816,29.448404 L 53.246316,7.635904 L 50.996316,7.635904 z M 53.808816,22.948404 L 50.308816,22.948404 L 52.058816,11.823404 L 52.121316,11.823404 L 53.183816,19.760904 L 53.808816,22.948404 z"
     id="path19353"
     style="fill:#000000;fill-opacity:1;stroke:none" />
  <path
     d="M 66.521812,7.635904 L 66.521812,22.698404 C 66.521812,26.635904 66.959312,29.760904 71.521812,29.760904 C 76.584312,29.760904 76.521812,25.948404 76.521812,23.135904 L 76.521812,7.635904 L 73.646812,7.635904 L 73.646812,23.948404 C 73.646812,25.760904 73.459312,27.010904 71.459312,27.010904 C 70.271812,27.010904 69.459312,26.448404 69.459312,23.635904 L 69.459312,7.635904 L 66.521812,7.635904 z"
     id="path19349"
     style="fill:#000000;fill-opacity:1;stroke:none" />
  <path
     d="M 86.707216,7.635904 L 86.707216,29.448404 L 94.457216,29.448404 L 94.457216,26.948404 L 89.644716,26.948404 L 89.644716,7.635904 L 86.707216,7.635904 z"
     id="path19345"
     style="fill:#000000;fill-opacity:1;stroke:none" />
  <path
     d="M 119.40573,8.073404 C 118.46823,7.510904 117.46823,7.323404 116.34323,7.323404 C 113.09323,7.323404 111.46823,9.885904 111.46823,12.948404 C 111.46823,18.635904 117.53073,19.510904 117.53073,23.885904 C 117.53073,25.510904 116.78073,26.885904 115.03073,26.885904 C 113.90573,26.885904 113.03073,26.385904 112.15573,25.760904 L 112.15573,28.698404 C 113.03073,29.448404 114.21823,29.760904 115.34323,29.760904 C 118.53073,29.760904 120.46823,27.073404 120.46823,24.010904 C 120.46823,21.073404 119.34323,19.635904 117.34323,17.635904 L 115.15573,15.260904 C 114.59323,14.510904 114.34323,13.823404 114.34323,12.885904 C 114.34323,11.385904 115.34323,10.073404 116.90573,10.073404 C 117.90573,10.073404 118.65573,10.448404 119.40573,11.010904 L 119.40573,8.073404 z"
     id="path19417"
     style="fill:#000000;fill-opacity:1;stroke:none" />
  <path
     d="M 138.0061,7.948404 C 137.1936,7.510904 136.5061,7.323404 135.5061,7.323404 C 129.5686,7.323404 129.0061,14.510904 129.0061,18.885904 C 129.0061,23.448404 129.8186,29.760904 135.6936,29.760904 C 136.5686,29.760904 137.3186,29.573404 138.0061,29.135904 L 138.0061,26.573404 C 137.5061,26.885904 136.9436,27.010904 136.3186,27.010904 C 132.3186,27.010904 132.1311,21.573404 132.1311,18.698404 C 132.1311,15.948404 132.1311,10.073404 136.1936,10.073404 C 136.8186,10.073404 137.4436,10.323404 138.0061,10.635904 L 138.0061,7.948404 z"
     id="path19413"
     style="fill:#000000;fill-opacity:1;stroke:none" />
  <path
     d="M 146.91588,7.635904 L 146.91588,29.448404 L 149.85338,29.448404 L 149.85338,18.635904 L 154.16588,18.635904 L 154.16588,29.448404 L 157.10338,29.448404 L 157.10338,7.635904 L 154.16588,7.635904 L 154.16588,16.135904 L 149.85338,16.135904 L 149.85338,7.635904 L 146.91588,7.635904 z"
     id="path19409"
     style="fill:#000000;fill-opacity:1;stroke:none" />
  <path
     d="M 167.27504,7.635904 L 167.27504,29.448404 L 175.08754,29.448404 L 175.08754,26.948404 L 170.21254,26.948404 L 170.21254,19.510904 L 174.52504,19.510904 L 174.52504,17.010904 L 170.21254,17.010904 L 170.21254,10.135904 L 175.08754,10.135904 L 175.08754,7.635904 L 167.27504,7.635904 z"
     id="path19405"
     style="fill:#000000;fill-opacity:1;stroke:none" />
  <path
     d="M 183.9852,29.448404 L 186.9227,29.448404 L 186.9227,18.760904 L 186.9227,18.760904 L 190.8602,29.448404 L 193.9227,29.448404 L 189.8602,18.823404 C 192.2977,18.385904 192.8602,15.260904 192.8602,13.198404 C 192.8602,7.760904 189.6102,7.635904 187.4852,7.635904 L 183.9852,7.635904 L 183.9852,29.448404 z M 186.9227,17.323404 L 186.9227,10.073404 L 187.3602,10.073404 C 189.5477,10.010904 189.7977,11.760904 189.7977,13.823404 C 189.7977,16.073404 189.0477,17.448404 186.9227,17.323404 z"
     id="path19401"
     style="fill:#000000;fill-opacity:1;stroke:none" />
  <path
     d="M 202.69362,29.448404 L 205.63112,29.448404 L 205.63112,18.760904 L 205.63112,18.760904 L 209.56862,29.448404 L 212.63112,29.448404 L 208.56862,18.823404 C 211.00612,18.385904 211.56862,15.260904 211.56862,13.198404 C 211.56862,7.760904 208.31862,7.635904 206.19362,7.635904 L 202.69362,7.635904 L 202.69362,29.448404 z M 205.63112,17.323404 L 205.63112,10.073404 L 206.06862,10.073404 C 208.25612,10.010904 208.50612,11.760904 208.50612,13.823404 C 208.50612,16.073404 207.75612,17.448404 205.63112,17.323404 z"
     id="path19397"
     style="fill:#000000;fill-opacity:1;stroke:none" />
  <path
     d="M 221.40204,7.635904 L 221.40204,29.448404 L 229.21454,29.448404 L 229.21454,26.948404 L 224.33954,26.948404 L 224.33954,19.510904 L 228.65204,19.510904 L 228.65204,17.010904 L 224.33954,17.010904 L 224.33954,10.135904 L 229.21454,10.135904 L 229.21454,7.635904 L 221.40204,7.635904 z"
     id="path19393"
     style="fill:#000000;fill-opacity:1;stroke:none" />
  <path
     d="M 238.11218,29.448404 L 241.04968,29.448404 L 241.04968,18.760904 L 241.04968,18.760904 L 244.98718,29.448404 L 248.04968,29.448404 L 243.98718,18.823404 C 246.42468,18.385904 246.98718,15.260904 246.98718,13.198404 C 246.98718,7.760904 243.73718,7.635904 241.61218,7.635904 L 238.11218,7.635904 L 238.11218,29.448404 z M 241.04968,17.323404 L 241.04968,10.073404 L 241.48718,10.073404 C 243.67468,10.010904 243.92468,11.760904 243.92468,13.823404 C 243.92468,16.073404 243.17468,17.448404 241.04968,17.323404 z"
     id="path19389"
     style="fill:#000000;fill-opacity:1;stroke:none" />
  <path
     d="M 270.03903,7.635904 L 267.10153,7.635904 L 267.10153,29.448404 L 270.03903,29.448404 L 270.03903,7.635904 z"
     id="path19385"
     style="fill:#000000;fill-opacity:1;stroke:none" />
  <path
     d="M 282.50415,12.698404 L 282.56665,12.635904 L 287.62915,29.448404 L 290.31665,29.448404 L 290.31665,7.635904 L 287.44165,7.635904 L 287.44165,15.385904 L 288.12915,24.135904 L 288.06665,24.198404 L 283.00415,7.635904 L 280.19165,7.635904 L 280.19165,29.448404 L 283.12915,29.448404 L 283.12915,21.448404 L 282.69165,14.135904 L 282.50415,12.698404 z"
     id="path19381"
     style="fill:#000000;fill-opacity:1;stroke:none" />
  <path
     d="M 307.27185,8.073404 C 306.33435,7.510904 305.33435,7.323404 304.20935,7.323404 C 300.95935,7.323404 299.33435,9.885904 299.33435,12.948404 C 299.33435,18.635904 305.39685,19.510904 305.39685,23.885904 C 305.39685,25.510904 304.64685,26.885904 302.89685,26.885904 C 301.77185,26.885904 300.89685,26.385904 300.02185,25.760904 L 300.02185,28.698404 C 300.89685,29.448404 302.08435,29.760904 303.20935,29.760904 C 306.39685,29.760904 308.33435,27.073404 308.33435,24.010904 C 308.33435,21.073404 307.20935,19.635904 305.20935,17.635904 L 303.02185,15.260904 C 302.45935,14.510904 302.20935,13.823404 302.20935,12.885904 C 302.20935,11.385904 303.20935,10.073404 304.77185,10.073404 C 305.77185,10.073404 306.52185,10.448404 307.27185,11.010904 L 307.27185,8.073404 z"
     id="path19377"
     style="fill:#000000;fill-opacity:1;stroke:none" />
  <path
     d="M 315.55972,7.635904 L 315.55972,10.135904 L 318.99722,10.135904 L 318.99722,29.448404 L 321.87222,29.448404 L 321.87222,10.135904 L 325.12222,10.135904 L 325.12222,7.635904 L 315.55972,7.635904 z"
     id="path19373"
     style="fill:#000000;fill-opacity:1;stroke:none" />
  <path
     d="M 336.38733,7.635904 L 333.44983,7.635904 L 333.44983,29.448404 L 336.38733,29.448404 L 336.38733,7.635904 z"
     id="path19369"
     style="fill:#000000;fill-opacity:1;stroke:none" />
  <path
     d="M 344.66492,7.635904 L 344.66492,10.135904 L 348.10242,10.135904 L 348.10242,29.448404 L 350.9774,29.448404 L 350.9774,10.135904 L 354.2274,10.135904 L 354.2274,7.635904 L 344.66492,7.635904 z"
     id="path19365"
     style="fill:#000000;fill-opacity:1;stroke:none" />
  <path
     d="M 362.55504,7.635904 L 362.55504,22.698404 C 362.55504,26.635904 362.99256,29.760904 367.55504,29.760904 C 372.61756,29.760904 372.55504,25.948404 372.55504,23.135904 L 372.55504,7.635904 L 369.68004,7.635904 L 369.68004,23.948404 C 369.68004,25.760904 369.49256,27.010904 367.49256,27.010904 C 366.30504,27.010904 365.49256,26.448404 365.49256,23.635904 L 365.49256,7.635904 L 362.55504,7.635904 z"
     id="path19361"
     style="fill:#000000;fill-opacity:1;stroke:none" />
  <path
     d="M 380.8654,7.635904 L 380.8654,10.135904 L 384.30292,10.135904 L 384.30292,29.448404 L 387.17792,29.448404 L 387.17792,10.135904 L 390.42792,10.135904 L 390.42792,7.635904 L 380.8654,7.635904 z"
     id="path19357"
     style="fill:#000000;fill-opacity:1;stroke:none" />
</svg>
